<?xml version="1.0" encoding="UTF-8" standalone="no"?>
<!-- Generator: Adobe Illustrator 22.1.0, SVG Export Plug-In . SVG Version: 6.00 Build 0)  -->

<svg
   xmlns:dc="http://purl.org/dc/elements/1.1/"
   xmlns:cc="http://creativecommons.org/ns#"
   xmlns:rdf="http://www.w3.org/1999/02/22-rdf-syntax-ns#"
   xmlns:svg="http://www.w3.org/2000/svg"
   xmlns="http://www.w3.org/2000/svg"
   xmlns:sodipodi="http://sodipodi.sourceforge.net/DTD/sodipodi-0.dtd"
   xmlns:inkscape="http://www.inkscape.org/namespaces/inkscape"
   version="1.1"
   x="0px"
   y="0px"
   viewBox="0 0 1600 900"
   style="enable-background:new 0 0 1600 900;"
   xml:space="preserve"
   id="svg279"
   sodipodi:docname="mlai.svg"
   inkscape:version="0.92.3 (2405546, 2018-03-11)"><metadata
   id="metadata285"><rdf:RDF><cc:Work
       rdf:about=""><dc:format>image/svg+xml</dc:format><dc:type
         rdf:resource="http://purl.org/dc/dcmitype/StillImage" /></cc:Work></rdf:RDF></metadata><defs
   id="defs283" /><sodipodi:namedview
   pagecolor="#ffffff"
   bordercolor="#666666"
   borderopacity="1"
   objecttolerance="10"
   gridtolerance="10"
   guidetolerance="10"
   inkscape:pageopacity="0"
   inkscape:pageshadow="2"
   inkscape:window-width="1346"
   inkscape:window-height="700"
   id="namedview281"
   showgrid="false"
   inkscape:zoom="0.25102291"
   inkscape:cx="645.07042"
   inkscape:cy="1146.9331"
   inkscape:window-x="10"
   inkscape:window-y="30"
   inkscape:window-maximized="1"
   inkscape:current-layer="svg279" />
<style
   type="text/css"
   id="style2">
	.st0{fill:#282F39;}
	.st1{fill:none;stroke:#00FEFF;stroke-width:2;stroke-linecap:round;stroke-linejoin:round;stroke-miterlimit:10;}
	.st2{fill:#FFFF4E;}
	.st3{fill:#FFFFFF;}
	.st4{font-family:'Righteous-Regular';}
	.st5{font-size:24px;}
	.st6{font-size:48px;}
	.st7{fill:#00FEFF;}
	.st8{font-family:'Rosario-Regular';}
	.st9{letter-spacing:9;}
</style>
<g
   id="background"
   style="fill:none">
	<rect
   x="0"
   class="st0"
   width="1600"
   height="900"
   id="rect4"
   style="fill:none" />
</g>
<g
   id="object"
   style="opacity:1;fill:#3bc1fd;fill-opacity:1;stroke:#2f5be7;stroke-opacity:1">
	<polygon
   class="st1"
   points="0,115 103,72 226,93.5  "
   id="polygon7"
   style="fill:#3bc1fd;fill-opacity:1;stroke:#2f5be7;stroke-opacity:1" />
	<polygon
   class="st1"
   points="0,115 103,72 113,198.5  "
   id="polygon9"
   style="fill:#3bc1fd;fill-opacity:1;stroke:#2f5be7;stroke-opacity:1" />
	<polygon
   class="st1"
   points="0,115 103,72 0,0  "
   id="polygon11"
   style="fill:#3bc1fd;fill-opacity:1;stroke:#2f5be7;stroke-opacity:1" />
	<polygon
   class="st1"
   points="0,115 0,280.8 113,198.5  "
   id="polygon13"
   style="fill:#3bc1fd;fill-opacity:1;stroke:#2f5be7;stroke-opacity:1" />
	<polygon
   class="st1"
   points="240,162 103,72 113,198.5  "
   id="polygon15"
   style="fill:#3bc1fd;fill-opacity:1;stroke:#2f5be7;stroke-opacity:1" />
	<polygon
   class="st1"
   points="0,0 103,72 113,198.5  "
   id="polygon17"
   style="fill:#3bc1fd;fill-opacity:1;stroke:#2f5be7;stroke-opacity:1" />
	<polygon
   class="st1"
   points="61,321 157,235 113,198.5  "
   id="polygon19"
   style="fill:#3bc1fd;fill-opacity:1;stroke:#2f5be7;stroke-opacity:1" />
	<polygon
   class="st1"
   points="240,162 103,72 226,93.5  "
   id="polygon21"
   style="fill:#3bc1fd;fill-opacity:1;stroke:#2f5be7;stroke-opacity:1" />
	<polygon
   class="st1"
   points="1137.6,863.9 1066.7,817.4 1130.3,828.5  "
   id="polygon23"
   style="fill:#3bc1fd;fill-opacity:1;stroke:#2f5be7;stroke-opacity:1" />
	<polygon
   class="st1"
   points="240,162 157,235 294,195  "
   id="polygon25"
   style="fill:#3bc1fd;fill-opacity:1;stroke:#2f5be7;stroke-opacity:1" />
	<polygon
   class="st1"
   points="389,139 426,180 294,195  "
   id="polygon27"
   style="fill:#3bc1fd;fill-opacity:1;stroke:#2f5be7;stroke-opacity:1" />
	<polygon
   class="st1"
   points="389,139 426,180 369,247  "
   id="polygon29"
   style="fill:#3bc1fd;fill-opacity:1;stroke:#2f5be7;stroke-opacity:1" />
	<polygon
   class="st1"
   points="305,297 294,195 369,247  "
   id="polygon31"
   style="fill:#3bc1fd;fill-opacity:1;stroke:#2f5be7;stroke-opacity:1" />
	<polygon
   class="st1"
   points="305,297 294,195 157,235  "
   id="polygon33"
   style="fill:#3bc1fd;fill-opacity:1;stroke:#2f5be7;stroke-opacity:1" />
	<polygon
   class="st1"
   points="305,297 305,372 401,321  "
   id="polygon35"
   style="fill:#3bc1fd;fill-opacity:1;stroke:#2f5be7;stroke-opacity:1" />
	<polygon
   class="st1"
   points="305,297 531.9,225 401,321  "
   id="polygon37"
   style="fill:#3bc1fd;fill-opacity:1;stroke:#2f5be7;stroke-opacity:1" />
	<polygon
   class="st1"
   points="397.5,412.3 305,372 401,321  "
   id="polygon39"
   style="fill:#3bc1fd;fill-opacity:1;stroke:#2f5be7;stroke-opacity:1" />
	<polygon
   class="st1"
   points="397.5,412.3 305,372 343.7,486.3  "
   id="polygon41"
   style="fill:#3bc1fd;fill-opacity:1;stroke:#2f5be7;stroke-opacity:1" />
	<polygon
   class="st1"
   points="397.5,412.3 450.5,469.8 343.7,486.3  "
   id="polygon43"
   style="fill:#3bc1fd;fill-opacity:1;stroke:#2f5be7;stroke-opacity:1" />
	<polygon
   class="st1"
   points="397.5,412.3 252.3,443 343.7,486.3  "
   id="polygon45"
   style="fill:#3bc1fd;fill-opacity:1;stroke:#2f5be7;stroke-opacity:1" />
	<polygon
   class="st1"
   points="459,529 450.5,469.8 343.7,486.3  "
   id="polygon47"
   style="fill:#3bc1fd;fill-opacity:1;stroke:#2f5be7;stroke-opacity:1" />
	<polygon
   class="st1"
   points="459,529 450.5,469.8 389,604.7  "
   id="polygon49"
   style="fill:#3bc1fd;fill-opacity:1;stroke:#2f5be7;stroke-opacity:1" />
	<polygon
   class="st1"
   points="459,529 450.5,469.8 479.8,405.6  "
   id="polygon51"
   style="fill:#3bc1fd;fill-opacity:1;stroke:#2f5be7;stroke-opacity:1" />
	<polygon
   class="st1"
   points="459,529 504.9,638.2 389,604.7  "
   id="polygon53"
   style="fill:#3bc1fd;fill-opacity:1;stroke:#2f5be7;stroke-opacity:1" />
	<polygon
   class="st1"
   points="459,529 504.9,638.2 517.2,595.8  "
   id="polygon55"
   style="fill:#3bc1fd;fill-opacity:1;stroke:#2f5be7;stroke-opacity:1" />
	<polygon
   class="st1"
   points="472,706.1 504.9,638.2 389,604.7  "
   id="polygon57"
   style="fill:#3bc1fd;fill-opacity:1;stroke:#2f5be7;stroke-opacity:1" />
	<polygon
   class="st1"
   points="472,706.1 504.9,638.2 583.8,725.3  "
   id="polygon59"
   style="fill:#3bc1fd;fill-opacity:1;stroke:#2f5be7;stroke-opacity:1" />
	<polygon
   class="st1"
   points="472,706.1 499.7,790.6 583.8,725.3  "
   id="polygon61"
   style="fill:#3bc1fd;fill-opacity:1;stroke:#2f5be7;stroke-opacity:1" />
	<polygon
   class="st1"
   points="472,706.1 605,804.5 583.8,725.3  "
   id="polygon63"
   style="fill:#3bc1fd;fill-opacity:1;stroke:#2f5be7;stroke-opacity:1" />
	<polygon
   class="st1"
   points="718.4,790.4 605,804.5 583.8,725.3  "
   id="polygon65"
   style="fill:#3bc1fd;fill-opacity:1;stroke:#2f5be7;stroke-opacity:1" />
	<polygon
   class="st1"
   points="1179.6,72.3 1141.5,77 1134.4,50.4  "
   id="polygon67"
   style="fill:#3bc1fd;fill-opacity:1;stroke:#2f5be7;stroke-opacity:1" />
	<polygon
   class="st1"
   points="531.9,225 426,180 369,247  "
   id="polygon69"
   style="fill:#3bc1fd;fill-opacity:1;stroke:#2f5be7;stroke-opacity:1" />
	<polygon
   class="st1"
   points="531.9,225 494,324.2 369,247  "
   id="polygon71"
   style="fill:#3bc1fd;fill-opacity:1;stroke:#2f5be7;stroke-opacity:1" />
	<polygon
   class="st1"
   points="531.9,225 426,180 583.8,174.7  "
   id="polygon73"
   style="fill:#3bc1fd;fill-opacity:1;stroke:#2f5be7;stroke-opacity:1" />
	<polygon
   class="st1"
   points="592.3,114 631,143.4 583.8,174.7  "
   id="polygon75"
   style="fill:#3bc1fd;fill-opacity:1;stroke:#2f5be7;stroke-opacity:1" />
	<polygon
   class="st1"
   points="592.3,114 524.3,135.2 583.8,174.7  "
   id="polygon77"
   style="fill:#3bc1fd;fill-opacity:1;stroke:#2f5be7;stroke-opacity:1" />
	<polygon
   class="st1"
   points="592.3,114 631,143.4 665.3,68.7  "
   id="polygon79"
   style="fill:#3bc1fd;fill-opacity:1;stroke:#2f5be7;stroke-opacity:1" />
	<polygon
   class="st1"
   points="741.5,115 631,143.4 698,93.5  "
   id="polygon81"
   style="fill:#3bc1fd;fill-opacity:1;stroke:#2f5be7;stroke-opacity:1" />
	<polygon
   class="st1"
   points="862.4,794.5 939.7,806.5 1010.7,729.5  "
   id="polygon83"
   style="fill:#3bc1fd;fill-opacity:1;stroke:#2f5be7;stroke-opacity:1" />
	<polygon
   class="st1"
   points="862.4,794.5 939.7,806.5 923,741.3  "
   id="polygon85"
   style="fill:#3bc1fd;fill-opacity:1;stroke:#2f5be7;stroke-opacity:1" />
	<polygon
   class="st1"
   points="1095,738 939.7,806.5 1010.7,729.5  "
   id="polygon87"
   style="fill:#3bc1fd;fill-opacity:1;stroke:#2f5be7;stroke-opacity:1" />
	<polygon
   class="st1"
   points="1095,738 1072.8,669.3 1010.7,729.5  "
   id="polygon89"
   style="fill:#3bc1fd;fill-opacity:1;stroke:#2f5be7;stroke-opacity:1" />
	<polygon
   class="st1"
   points="1095,738 1024.5,813.7 1010.7,729.5  "
   id="polygon91"
   style="fill:#3bc1fd;fill-opacity:1;stroke:#2f5be7;stroke-opacity:1" />
	<polygon
   class="st1"
   points="1095,738 1072.8,669.3 1169.4,745.5  "
   id="polygon93"
   style="fill:#3bc1fd;fill-opacity:1;stroke:#2f5be7;stroke-opacity:1" />
	<polygon
   class="st1"
   points="1095,738 1072.8,669.3 1150,689  "
   id="polygon95"
   style="fill:#3bc1fd;fill-opacity:1;stroke:#2f5be7;stroke-opacity:1" />
	<polygon
   class="st1"
   points="1157,615.7 1072.8,669.3 1150,689  "
   id="polygon97"
   style="fill:#3bc1fd;fill-opacity:1;stroke:#2f5be7;stroke-opacity:1" />
	<polygon
   class="st1"
   points="1220,669.3 1229.2,724.5 1150,689  "
   id="polygon99"
   style="fill:#3bc1fd;fill-opacity:1;stroke:#2f5be7;stroke-opacity:1" />
	<polygon
   class="st1"
   points="1220,669.3 1229.2,724.5 1279.2,713.4  "
   id="polygon101"
   style="fill:#3bc1fd;fill-opacity:1;stroke:#2f5be7;stroke-opacity:1" />
	<polygon
   class="st1"
   points="1157,615.7 1072.8,669.3 1126.7,575.9  "
   id="polygon103"
   style="fill:#3bc1fd;fill-opacity:1;stroke:#2f5be7;stroke-opacity:1" />
	<polygon
   class="st1"
   points="1157,615.7 1170.3,509 1126.7,575.9  "
   id="polygon105"
   style="fill:#3bc1fd;fill-opacity:1;stroke:#2f5be7;stroke-opacity:1" />
	<polygon
   class="st1"
   points="1150,450 1170.3,509 1126.7,575.9  "
   id="polygon107"
   style="fill:#3bc1fd;fill-opacity:1;stroke:#2f5be7;stroke-opacity:1" />
	<polygon
   class="st1"
   points="1150,450 1170.3,509 1269,503  "
   id="polygon109"
   style="fill:#3bc1fd;fill-opacity:1;stroke:#2f5be7;stroke-opacity:1" />
	<polygon
   class="st1"
   points="1150,450 1170.3,509 1224,370  "
   id="polygon111"
   style="fill:#3bc1fd;fill-opacity:1;stroke:#2f5be7;stroke-opacity:1" />
	<polygon
   class="st1"
   points="1326,384 1170.3,509 1224,370  "
   id="polygon113"
   style="fill:#3bc1fd;fill-opacity:1;stroke:#2f5be7;stroke-opacity:1" />
	<polygon
   class="st1"
   points="1326,384 1336.1,493.9 1224,370  "
   id="polygon115"
   style="fill:#3bc1fd;fill-opacity:1;stroke:#2f5be7;stroke-opacity:1" />
	<polygon
   class="st1"
   points="1326,384 1391.7,277 1224,370  "
   id="polygon117"
   style="fill:#3bc1fd;fill-opacity:1;stroke:#2f5be7;stroke-opacity:1" />
	<polygon
   class="st1"
   points="1326,384 1391.7,277 1467,334.5  "
   id="polygon119"
   style="fill:#3bc1fd;fill-opacity:1;stroke:#2f5be7;stroke-opacity:1" />
	<polygon
   class="st1"
   points="215.1,635.7 172.2,646.3 184.7,617.7  "
   id="polygon121"
   style="fill:#3bc1fd;fill-opacity:1;stroke:#2f5be7;stroke-opacity:1" />
	<polygon
   class="st1"
   points="1275,220.4 1391.7,277 1441,163.9  "
   id="polygon123"
   style="fill:#3bc1fd;fill-opacity:1;stroke:#2f5be7;stroke-opacity:1" />
	<polygon
   class="st1"
   points="1275,220.4 1391.7,277 1292,114  "
   id="polygon125"
   style="fill:#3bc1fd;fill-opacity:1;stroke:#2f5be7;stroke-opacity:1" />
	<polygon
   class="st1"
   points="1275,220.4 1102.2,220.6 1292,114  "
   id="polygon127"
   style="fill:#3bc1fd;fill-opacity:1;stroke:#2f5be7;stroke-opacity:1" />
	<polygon
   class="st1"
   points="1150,450 1120.7,309.7 1224,370  "
   id="polygon129"
   style="fill:#3bc1fd;fill-opacity:1;stroke:#2f5be7;stroke-opacity:1" />
	<polygon
   class="st1"
   points="1102.2,220.6 1120.7,309.7 1224,370  "
   id="polygon131"
   style="fill:#3bc1fd;fill-opacity:1;stroke:#2f5be7;stroke-opacity:1" />
	<polygon
   class="st1"
   points="1102.2,220.6 1120.7,309.7 1099.8,334.5  "
   id="polygon133"
   style="fill:#3bc1fd;fill-opacity:1;stroke:#2f5be7;stroke-opacity:1" />
	<polygon
   class="st1"
   points="1102.2,220.6 1120.7,309.7 1038.5,220.4  "
   id="polygon135"
   style="fill:#3bc1fd;fill-opacity:1;stroke:#2f5be7;stroke-opacity:1" />
	<polygon
   class="st1"
   points="1094.8,211.2 1000.3,116.5 1038.5,193.9  "
   id="polygon137"
   style="fill:#3bc1fd;fill-opacity:1;stroke:#2f5be7;stroke-opacity:1" />
	<polygon
   class="st1"
   points="919.6,121 1000.3,116.5 1038.5,193.9  "
   id="polygon139"
   style="fill:#3bc1fd;fill-opacity:1;stroke:#2f5be7;stroke-opacity:1" />
	<polygon
   class="st1"
   points="919.6,121 1000.3,116.5 900.2,55.9  "
   id="polygon141"
   style="fill:#3bc1fd;fill-opacity:1;stroke:#2f5be7;stroke-opacity:1" />
	<polygon
   class="st1"
   points="919.6,121 1000.3,116.5 800,70  "
   id="polygon143"
   style="fill:#3bc1fd;fill-opacity:1;stroke:#2f5be7;stroke-opacity:1" />
	<polygon
   class="st1"
   points="919.6,121 776,167 800,70  "
   id="polygon145"
   style="fill:#3bc1fd;fill-opacity:1;stroke:#2f5be7;stroke-opacity:1" />
	<polygon
   class="st1"
   points="1317.7,557.7 1170.3,509 1269,503  "
   id="polygon147"
   style="fill:#3bc1fd;fill-opacity:1;stroke:#2f5be7;stroke-opacity:1" />
	<polygon
   class="st1"
   points="1317.7,557.7 1170.3,509 1259,600.3  "
   id="polygon149"
   style="fill:#3bc1fd;fill-opacity:1;stroke:#2f5be7;stroke-opacity:1" />
	<polygon
   class="st1"
   points="1283,660.3 1157,615.7 1259,600.3  "
   id="polygon151"
   style="fill:#3bc1fd;fill-opacity:1;stroke:#2f5be7;stroke-opacity:1" />
	<polygon
   class="st1"
   points="1317.7,557.7 1391.7,562.3 1347,609  "
   id="polygon153"
   style="fill:#3bc1fd;fill-opacity:1;stroke:#2f5be7;stroke-opacity:1" />
	<polygon
   class="st1"
   points="1421.7,615.7 1391.7,562.3 1347,609  "
   id="polygon155"
   style="fill:#3bc1fd;fill-opacity:1;stroke:#2f5be7;stroke-opacity:1" />
	<polygon
   class="st1"
   points="1421.7,615.7 1429,642 1347,609  "
   id="polygon157"
   style="fill:#3bc1fd;fill-opacity:1;stroke:#2f5be7;stroke-opacity:1" />
	<polygon
   class="st1"
   points="1421.7,615.7 1391.7,562.3 1426.3,543.7  "
   id="polygon159"
   style="fill:#3bc1fd;fill-opacity:1;stroke:#2f5be7;stroke-opacity:1" />
	<polygon
   class="st1"
   points="1421.7,615.7 1476.3,513 1426.3,543.7  "
   id="polygon161"
   style="fill:#3bc1fd;fill-opacity:1;stroke:#2f5be7;stroke-opacity:1" />
	<polygon
   class="st1"
   points="1229.2,724.5 1220,669.3 1283,660.3  "
   id="polygon163"
   style="fill:#3bc1fd;fill-opacity:1;stroke:#2f5be7;stroke-opacity:1" />
	<polygon
   class="st1"
   points="1283,660.3 1347,609 1381.7,675  "
   id="polygon165"
   style="fill:#3bc1fd;fill-opacity:1;stroke:#2f5be7;stroke-opacity:1" />
	<polygon
   class="st1"
   points="1471.7,720.3 1429,642 1381.7,675  "
   id="polygon167"
   style="fill:#3bc1fd;fill-opacity:1;stroke:#2f5be7;stroke-opacity:1" />
	<polygon
   class="st1"
   points="1471.7,720.3 1429,642 1476.3,675  "
   id="polygon169"
   style="fill:#3bc1fd;fill-opacity:1;stroke:#2f5be7;stroke-opacity:1" />
	<polygon
   class="st1"
   points="1471.7,720.3 1513.3,817.4 1381.7,675  "
   id="polygon171"
   style="fill:#3bc1fd;fill-opacity:1;stroke:#2f5be7;stroke-opacity:1" />
	<polygon
   class="st1"
   points="1471.7,720.3 1522.3,724.5 1476.3,675  "
   id="polygon173"
   style="fill:#3bc1fd;fill-opacity:1;stroke:#2f5be7;stroke-opacity:1" />
	<polygon
   class="st1"
   points="1534.6,696.9 1522.3,724.5 1476.3,675  "
   id="polygon175"
   style="fill:#3bc1fd;fill-opacity:1;stroke:#2f5be7;stroke-opacity:1" />
	<polygon
   class="st1"
   points="1471.7,720.3 1522.3,724.5 1513.3,817.4  "
   id="polygon177"
   style="fill:#3bc1fd;fill-opacity:1;stroke:#2f5be7;stroke-opacity:1" />
	<polygon
   class="st1"
   points="1600,801.7 1522.3,724.5 1513.3,817.4  "
   id="polygon179"
   style="fill:#3bc1fd;fill-opacity:1;stroke:#2f5be7;stroke-opacity:1" />
	<polygon
   class="st1"
   points="1600,801.7 1600,900 1513.3,817.4  "
   id="polygon181"
   style="fill:#3bc1fd;fill-opacity:1;stroke:#2f5be7;stroke-opacity:1" />
	<polygon
   class="st1"
   points="1600,697.7 1550.3,642 1534.6,696.9  "
   id="polygon183"
   style="fill:#3bc1fd;fill-opacity:1;stroke:#2f5be7;stroke-opacity:1" />
	<polygon
   class="st1"
   points="1600,697.7 1600,801.7 1534.6,696.9  "
   id="polygon185"
   style="fill:#3bc1fd;fill-opacity:1;stroke:#2f5be7;stroke-opacity:1" />
	<polygon
   class="st1"
   points="1522.3,724.5 1600,801.7 1534.6,696.9  "
   id="polygon187"
   style="fill:#3bc1fd;fill-opacity:1;stroke:#2f5be7;stroke-opacity:1" />
	<polygon
   class="st1"
   points="1600,697.7 1550.3,642 1600,589  "
   id="polygon189"
   style="fill:#3bc1fd;fill-opacity:1;stroke:#2f5be7;stroke-opacity:1" />
	<circle
   class="st2"
   cx="252.3"
   cy="443"
   r="3.8"
   id="circle191"
   style="fill:#3bc1fd;fill-opacity:1;stroke:#2f5be7;stroke-opacity:1" />
	<circle
   class="st2"
   cx="479.8"
   cy="405.6"
   r="3.8"
   id="circle193"
   style="fill:#3bc1fd;fill-opacity:1;stroke:#2f5be7;stroke-opacity:1" />
	<circle
   class="st2"
   cx="61"
   cy="321"
   r="3.8"
   id="circle195"
   style="fill:#3bc1fd;fill-opacity:1;stroke:#2f5be7;stroke-opacity:1" />
	<circle
   class="st2"
   cx="388.3"
   cy="139"
   r="3.8"
   id="circle197"
   style="fill:#3bc1fd;fill-opacity:1;stroke:#2f5be7;stroke-opacity:1" />
	<circle
   class="st2"
   cx="524.3"
   cy="135.2"
   r="3.8"
   id="circle199"
   style="fill:#3bc1fd;fill-opacity:1;stroke:#2f5be7;stroke-opacity:1" />
	<circle
   class="st2"
   cx="665.3"
   cy="68.7"
   r="3.8"
   id="circle201"
   style="fill:#3bc1fd;fill-opacity:1;stroke:#2f5be7;stroke-opacity:1" />
	<circle
   class="st2"
   cx="741.5"
   cy="115.2"
   r="3.8"
   id="circle203"
   style="fill:#3bc1fd;fill-opacity:1;stroke:#2f5be7;stroke-opacity:1" />
	<circle
   class="st2"
   cx="776"
   cy="167"
   r="3.8"
   id="circle205"
   style="fill:#3bc1fd;fill-opacity:1;stroke:#2f5be7;stroke-opacity:1" />
	<circle
   class="st2"
   cx="900.2"
   cy="55.9"
   r="3.8"
   id="circle207"
   style="fill:#3bc1fd;fill-opacity:1;stroke:#2f5be7;stroke-opacity:1" />
	<circle
   class="st2"
   cx="1038.5"
   cy="220.4"
   r="3.8"
   id="circle209"
   style="fill:#3bc1fd;fill-opacity:1;stroke:#2f5be7;stroke-opacity:1" />
	<circle
   class="st2"
   cx="1292"
   cy="115"
   r="3.8"
   id="circle211"
   style="fill:#3bc1fd;fill-opacity:1;stroke:#2f5be7;stroke-opacity:1" />
	<circle
   class="st2"
   cx="1440.1"
   cy="163.9"
   r="3.8"
   id="circle213"
   style="fill:#3bc1fd;fill-opacity:1;stroke:#2f5be7;stroke-opacity:1" />
	<circle
   class="st2"
   cx="1336.1"
   cy="493.9"
   r="3.8"
   id="circle215"
   style="fill:#3bc1fd;fill-opacity:1;stroke:#2f5be7;stroke-opacity:1" />
	<circle
   class="st2"
   cx="1279.2"
   cy="713.4"
   r="3.8"
   id="circle217"
   style="fill:#3bc1fd;fill-opacity:1;stroke:#2f5be7;stroke-opacity:1" />
	<circle
   class="st2"
   cx="1169.4"
   cy="745.5"
   r="3.8"
   id="circle219"
   style="fill:#3bc1fd;fill-opacity:1;stroke:#2f5be7;stroke-opacity:1" />
	<circle
   class="st2"
   cx="1429"
   cy="642"
   r="3.8"
   id="circle221"
   style="fill:#3bc1fd;fill-opacity:1;stroke:#2f5be7;stroke-opacity:1" />
	<circle
   class="st2"
   cx="1522.3"
   cy="724.5"
   r="3.8"
   id="circle223"
   style="fill:#3bc1fd;fill-opacity:1;stroke:#2f5be7;stroke-opacity:1" />
	<circle
   class="st2"
   cx="1024.5"
   cy="812.3"
   r="3.8"
   id="circle225"
   style="fill:#3bc1fd;fill-opacity:1;stroke:#2f5be7;stroke-opacity:1" />
	<circle
   class="st2"
   cx="499.7"
   cy="790.6"
   r="3.8"
   id="circle227"
   style="fill:#3bc1fd;fill-opacity:1;stroke:#2f5be7;stroke-opacity:1" />
	<circle
   class="st2"
   cx="718.4"
   cy="790.4"
   r="3.8"
   id="circle229"
   style="fill:#3bc1fd;fill-opacity:1;stroke:#2f5be7;stroke-opacity:1" />
	<g
   id="g241"
   style="fill:#3bc1fd;fill-opacity:1;stroke:#2f5be7;stroke-opacity:1">
		<path
   class="st1"
   d="M555.6,281.2c-0.5-0.1-2.9-0.5-3.4-0.4c-2.4,3.5-4.8,7.1-7.1,10.8l10.5-4.5    C555.6,287.1,556.1,281.3,555.6,281.2z"
   id="path231"
   style="fill:#3bc1fd;fill-opacity:1;stroke:#2f5be7;stroke-opacity:1" />
		<path
   class="st1"
   d="M571,262l9.6-3.8c0,0,1-5.6,0.7-5.6c-0.1,0-1.9-1.5-4.1-3.5c-5.6,6.2-11,12.7-16.1,19.4    c1.1,0.2,1.8,0.4,1.8,0.4L571,262z"
   id="path233"
   style="fill:#3bc1fd;fill-opacity:1;stroke:#2f5be7;stroke-opacity:1" />
		<path
   class="st1"
   d="M611,514.5l-10.5-9.8l-17.4-1.4c0,0-7.5-9.4-7.7-9.4c-0.2,0-6.2,0.4-6.2,0.4s-1.5-3.4-1.7-3.4s-8.1,0-8.1,0    l4-5c0,0,0-2.5-0.2-2.5c-0.3,0-4.7-0.5-4.7-0.5l-0.9-10.7c0,0-9.8-7.1-10.3-7.2c-0.5-0.1-12.5-0.5-12.5-0.5s-8.8-13.9-9.2-13.9    c-0.4,0-4.5-1.2-4.5-1.2l-1.2-3.1c0,0,3.2-5,3-5c-0.2,0-12.4-1.6-12.4-1.6s-5.3,3.9-5.7,3.9c-0.1,0-2.4-0.5-4.9-1    c-1.8,71.1,21.3,137.2,61.5,189.7l1.7-2.2l4-10.3l2.9-1.6l0.2-5.1l-3-5.9l16.4-12l8.2,1.3l9.5-15.6l3-29.2l14.7-17.2l0.4-10.1    l-3.2-9.2L611,514.5z"
   id="path235"
   style="fill:#3bc1fd;fill-opacity:1;stroke:#2f5be7;stroke-opacity:1" />
		<path
   class="st1"
   d="M701.3,192c0.2-0.1,0.3-0.1,0.4-0.1c0.1,0,0.1,0,0.2,0c0,0,0,0,0,0c0,0,0.1,0,0.1,0c0,0,0,0,0,0c0,0,0,0,0,0    c0,0,0,0,0,0c0,0,0,0-0.1-0.1c0,0,0,0,0,0c0,0-0.1,0-0.2-0.1c0,0,0,0,0,0c-0.1,0-0.1,0-0.2-0.1c0,0,0,0-0.1,0    c-0.1,0-0.2,0-0.3-0.1c0,0,0,0-0.1,0c-0.1,0-0.2-0.1-0.4-0.1c0,0,0,0,0,0l0,0c-2.6-0.5-8.2-1.2-9.6-1.6c-2-0.6,5.2-2.4,5.2-2.4    l10.3,2.9l1.2-4.8l-8.8-6.9l8.4,2.8l3.6-2.2l8.8-4.8l1.7-5.3l-2.4-4.7l3.9-3.9l-0.2-0.7c-40,10.6-76.9,29.4-108.6,54.4l2.6,8    c0,0,5.3,0.4,7.3,0.8c2,0.3-0.1,2.8-0.1,2.8l9,2.3c0,0,5.2-9.7,5.4-10.5c0.3-0.8,4.4-2.6,4.4-2.6l4.6-6.9c0,0,15.8-2.2,17.1-2.2    c1.3,0,9.9-8.3,9.9-8.3s9.6,0.8,13.5,0.5c3.6-0.3,10.2-5.2,13-6.2C701.1,192,701.2,192,701.3,192z"
   id="path237"
   style="fill:#3bc1fd;fill-opacity:1;stroke:#2f5be7;stroke-opacity:1" />
		<path
   class="st1"
   d="M1048.8,282.3c-17.8-26.4-39.7-49.8-64.8-69.3l0,0.9l-2.2,1.8l-5.8,0.4l-6.6-2.1l1.8-1.6l5.4,0.8l3.5-3.3    c-7.4-5.6-15.1-10.8-23-15.6l-4.4,1.3c0,0,4.3,1.5,4.9,1.3c0.6-0.2,0.9,4.3,0.9,4.3l8.2,3.8l0.6,2.7l-3-1.2l-5.6-0.6l-8.1-4    l-9.7-2.4l0.9,6.1l-4.5-1.2l-11.6,1.1l-1.4-1.1l-4.3-0.9l-12.9,5.8l-6.2,0.2l-1.7-1.6l3.3-4.1l-9.1-2.1l4.2,11.3l-6.8-0.7l-5.6-6    l-11.5-4.2l-21.9-7.9l-16.2-1.7l-19.1,5.4l-4.7,4.3l-6.8,5.7l-0.2,4.9l-22.2,10.6c0,0-2.5,6.5-2.5,7c0,0.5,3.6,1,3.6,1l-1.4,7.8    c0,0,2.2,2.5,6,3c3.8,0.5,4.9-1.2,5.2-1.3c0.4-0.1,3.8-3.5,3.8-3.5l3.3-1.2l6.4,8.8l0,8.2c0,0,3.8,0.3,4.2,0.1    c0.4-0.1,3.1-2.8,3.1-2.8l6.6-1.3l0.3-2.1l-1.7-1.8l0.7-6.1l4,0.3l2.6-5l-6.2-3l0.4-6.5l9.5-6l0.9-3.3l2.8-2.8l7-1.3l2,4.4    l-9.3,6.3l-3.3,2.3c0,0,3,1.2,3.4,1.5c0.4,0.3-0.5,5.7-0.5,5.7l5.4,3.7l4.1-0.1l2.6-1.6c0,0,7.5-0.4,8.6-0.3s7.7,2.2,7.7,2.2    l-7.6,2.9l-3.8-1.1l-9.3,0.8c0,0,3.2,2.8,3.7,2.9s-0.3,4.3-0.4,5.1c-0.2,0.8-2.6,1.6-2.6,1.6l-2.9-3.7l-5,1.7l0.8,7.3l-4.7,4.5    l-2.4,0.5l0-2.4l-6.1-0.2l-2.5,1.9l-16.5,0.8l-5.2-4l0.4-3.2l3.3-2.9L799,245l-5.1-0.2l-1.8,3.6l1.9,6.2l1.4,4.5l-10.2,0.7    c0,0-7,8-7,8.4c0,0.4-10.6,8.5-10.6,8.5l-19.3,4.4c0,0-0.9,3-1,3.4c-0.1,0.4,6.3,0.2,6.8,0.2s6.6,6.8,6.6,6.8s-0.3,6.1-0.4,7    c0,0.9-3.1,5.1-3.1,5.1l-21.8-0.8l0,0h0l-6.7,2c0,0,0.3,0.2,0.6,0.4c0.2,0.1,0.4,0.3,0.6,0.4c0.4,0.2,0.8,0.5,1.1,0.6    c0,0,0.1,0.1,0.1,0.1c0.2,0.1,0.2,0.4,0.2,0.9c0,0,0,0,0,0c0,0.1,0,0.3,0,0.4c-0.1,1.6-0.6,4-0.6,4l2.1,3l-5.5,4.9l-0.3,3.9    c0,0,1.9,1.2,2.7,1.4c0.9,0.2-0.7,5.9-0.7,5.9s6.4-0.4,7.1-0.4c0.1,0,0.2,0.1,0.3,0.2c0.2,0.1,0.4,0.4,0.7,0.6    c0.2,0.3,0.5,0.6,0.7,0.9c0.6,0.8,1.2,1.7,1.2,1.7L755,333l11.2-8.2l-1.7-2.7l-0.4-4.3l10.5-5.6l0.4-7.5c0,0,6,0.1,6.3,0.1    c0.4,0,0.8,1.7,0.8,1.7l5.8,0.5l7.9-5.4c0,0,7.3,9.3,7.5,9.6c0.2,0.4,4.2,3.9,4.7,4c0.5,0,7,3,7,3s6.4,6.4,6.7,6.6    c0.4,0.1-2.2,3.6-2.2,3.6l-11.4-0.1l1.1,3.5c0,0,4.1,3.8,4.8,4.2c0.7,0.4,4.7,0.4,5.8,0.3c1.1,0,0.8-1.7,0.8-1.7l-2.6-2.8l3.8-0.5    l4.1-5.1l-3.2-5.8c0,0,4.8,1.7,6.4,2.3c1.6,0.6,0.8-2.1,0.8-2.1l-9.2-7.9l-6.5-1.7c0,0-0.5-3.7-0.7-4.1c-0.2-0.4-6-5.7-6-5.7    l0.8-5.2c0,0,3.1-1,3.5-1c0.4,0,0.1,4.6,0.1,4.6s17.8,12.8,20.4,13.8c2.6,1,0.2,8,0.3,8.4c0.1,0.4,4.6,6.8,5.1,7.3    c0.5,0.5,5.1-0.1,6.6,0.1c1.5,0.2,2.9,3.5,4.2,3.7c1.3,0.2,2.9,0.2,3.7,0.3c0.8,0-1.8-5.1-1.8-5.1l-3.2-2.4c0,0-2.4-4.8-2.4-5.2    c0-0.4,4.4,1.7,4.4,1.7l1.1-3.6l5,1.2c0,0,14-2.2,15.8-2.1c1.8,0.1-6.5-2.5-6.5-2.5l-2.1-4.9l3.1-7.8l1.8,0.1l5.3-7.9l6.1,1    l2.1,4.4c0,0,1.9,4.4,2.4,5.2c0.5,0.8,3.9-3.9,3.9-3.9l-1.3-6.1l10.5-2.9l0.1,10.4l15.5,13h0l-3.7,4.4l-13.7-1.2l-3.9-3.9    l-11.1-0.4l-4.2,4.9l-7.4,1.5l-10.3,1.2l-3,9.2c0,0,2.7,0.1,3.2,0.1c0.5,0,3.5,1.8,4.1,2.3c0.6,0.5,1,4.2,1,4.2l4.9-0.1    c0,0,0.2,2.7,0.1,3c0,0.4,6.6,0.6,6.6,0.6l1-2.9c0,0,2.8-0.8,3.2-0.8c0.4,0,2.4,3.3,2.8,3.5c0.4,0.3,4,0.6,4,0.6s4-1.9,4.4-2.5    c0.4-0.6,3.5,0.6,4,0.6s0.4,14.7,0.4,14.7l-3.6,8.7l-8.1,0.5c0,0-0.2-1.3-1-1.8c-0.7-0.5-6.3-0.2-6.3-0.2l-1.1,3.5l-8.1-0.3    l-0.9-2.8l-8.3-0.5l0.4-2.8l-9.6-0.3l-2.4-4.4l-9,3.5l1.8,5.1l-4.9,2.6l-12.8-4.5l-2.1-5.9l-4.6-0.4L813,352l-7.1,0.3l-7.5-4.3    l4.8-6.2l-1.2-3.3l-0.1-3.8l-3.7-3.7l-6.7,3.8c0,0-23.3-0.6-24.1-0.8c-0.8-0.3-13.7,7.9-13.7,7.9l-14.2-4.3c0,0-5.9,8.5-6.1,9    c-0.3,0.5-8.6,2-8.6,2l-1.7,15.2l-6.4,6.6l-3.8-0.1l-8.8,8.7l-1,6.7l-9.1,13c0,0,1.7,6.8,2.3,7.2c0.6,0.4-2.4,20.7-2.4,20.7    l-3.8,3.7c0,0,1.6,2.2,1.6,2.5c0,0.3-0.3,9-0.3,9l5.2,1.3c0,0,6.5,10.4,7.2,10.8c0.7,0.4-0.9,3.5-0.9,3.5s21.1,20.5,22,20.8    c0.9,0.3,11.3-4.4,11.3-4.4l11.8,3.8l12.7-7l14.7,0.5c0,0,1.6,5.6,1.7,6s3.5,4.4,3.9,4.8c0.4,0.4,3.2-3.3,3.2-3.3l5.9,0.3l3.7,3.7    l0,8.4c0,0-3.3,7-2.5,7.4c0.7,0.4-1.1,8.8-1.1,8.8l11.5,15.1l-0.4,6.8c0,0,2.6,5.7,3.3,6.1c0.7,0.4-1.3,7.3-1.3,7.9    c0,0.6,4.3,8.3,4.3,8.3l-9.6,15.9c0,0-1.6,12.9-1.4,13.4s7.5,9.9,7.5,9.9l-0.2,5.2l3.3,4.9l0,21.9c0,0,6.2,8.1,7.1,8.5    c0.9,0.4-1.1,5.5-1.1,5.5l6,5.4l-0.4,4.3l-2.8-0.4l-0.2,4.3c0,0,6.6,7.2,7.6,7.2c1,0,5.2-2.4,5.8-3.1c0.7-0.7,8.7,0.3,8.7,0.3    l12.6-1.3l13-9.9l12.4-16.7l0.3-8.5l6-2.6c0,0,4.9-1.9,5.3-2c0.4-0.1,0-5.8,0-5.8l0.3-11.4l-3.5-0.9l1.3-3.4c0,0,4.2,0.3,4.7,0.2    c0.5-0.1,11.2-12.2,11.2-12.2l4.8,0.2l5.8-8.5l1-15.1l2-2.8l-5.4-5.4l0.5-3.3l-2.5-1.4l-0.2-4.1l2.4-2.3l0.1-2.7l-3.4-1.9l1.3-4    l4.6,0.2l0.5-2.8l-2.2-1.2l9.4-15.3l16-14c0,0,11.7-14.8,13.7-14.7c2,0.1,0.3-8.6,0.3-8.6l8.3-9l0.4-10.8c0,0-11.9,1.8-12.9,1.7    c-1,0-2.9,2.1-2.9,2.1s-13.1,1.4-13.6,1.4c-0.5,0-2.4-3-2.4-3s-3.2-11.3-3.5-12.3c-0.3-1-12.4-8.7-12.4-8.7s-1.5-11.5-1.9-12.4    c-0.5-0.9-5.3-4.1-5.3-4.1l0-9.5l-2.2-5.1l-3.8-2.7l-0.5-5.3l-7.5-12.3l-0.7-4.3l5.4,1h0c0,0,5.8,6.8,6.5,7s2,6.3,2,6.3l7.5,7    l-0.7,11.1l7.1,4.5c0,0,0.7,4.3,0.8,4.8c0.2,0.5,7.1,9.4,7.8,9.7c0.7,0.4,0.9,14.1,0.9,14.1l3.2,4.2l13.2-4.3l18.5-6.8l0.5-5.1    l11.4-2.6l5.4-5.2l12.7-16.1l-4.7-6.1l-9.2-2.7l-2.7-9.7l-7.6,9l-8.6-1.5l-4.6-8.1l-6.3-4.6l-5.1-13.2c0,0,6.8-0.9,7.3-0.8    c0.5,0.2,5.4,11.2,5.4,11.2l15.9,4.3l7.1-0.9l2.9,7.5l9.4,1.8c0,0,14.3,1.5,15,1.5c0.7,0,10.4-2,10.4-2l12.3,11.2l1.9,3.4    l-4.8,1.4c0,0,6.9,7,7.4,7.2c0.5,0.2,3.9-1.2,3.9-1.2l0.4-6.6l3.1-0.2l-0.7,11.4c0,0,2.7,3.9,3.2,4.1c0.5,0.2,0,9.6,0,9.6l7.6,8.6    l-0.2,10.1l5,5.6c0,0,1,9.7,1.7,10.5s4.4,4.5,4.4,4.5l3-3.3l6-7.1l1.1-20.9c0,0,2.3-2.5,3.3-2.4c1,0,4.2-4.4,4.2-4.4l15.6-14.7    l3.1-6.1l0.5-0.1C1092.2,366,1074.9,321,1048.8,282.3z"
   id="path239"
   style="fill:#3bc1fd;fill-opacity:1;stroke:#2f5be7;stroke-opacity:1" />
	</g>
	<path
   class="st1"
   d="M789.5,749.8c165.6,5.8,304.5-123.8,310.3-289.3"
   id="path243"
   style="fill:#3bc1fd;fill-opacity:1;stroke:#2f5be7;stroke-opacity:1" />
	<circle
   class="st2"
   cx="1099.8"
   cy="460.5"
   r="3.8"
   id="circle245"
   style="fill:#3bc1fd;fill-opacity:1;stroke:#2f5be7;stroke-opacity:1" />
	<circle
   class="st2"
   cx="789.5"
   cy="750"
   r="3.8"
   id="circle247"
   style="fill:#3bc1fd;fill-opacity:1;stroke:#2f5be7;stroke-opacity:1" />
	<polyline
   class="st1"
   points="829.1,642.3 800.3,671.1 750.8,671.1  "
   id="polyline249"
   style="fill:#3bc1fd;fill-opacity:1;stroke:#2f5be7;stroke-opacity:1" />
	<circle
   class="st2"
   cx="829.1"
   cy="642.3"
   r="3.8"
   id="circle251"
   style="fill:#3bc1fd;fill-opacity:1;stroke:#2f5be7;stroke-opacity:1" />
	<polyline
   class="st1"
   points="563.5,574.9 651.1,574.9 680.6,545.4  "
   id="polyline253"
   style="fill:#3bc1fd;fill-opacity:1;stroke:#2f5be7;stroke-opacity:1" />
	<polyline
   class="st1"
   points="1069,401.8 1013.3,457.6 1013.3,503  "
   id="polyline255"
   style="fill:#3bc1fd;fill-opacity:1;stroke:#2f5be7;stroke-opacity:1" />
	<circle
   class="st2"
   cx="1069"
   cy="401.8"
   r="3.8"
   id="circle257"
   style="fill:#3bc1fd;fill-opacity:1;stroke:#2f5be7;stroke-opacity:1" />
	<polyline
   class="st1"
   points="740.6,319.1 614.3,319.1 583.7,349.7  "
   id="polyline259"
   style="fill:#3bc1fd;fill-opacity:1;stroke:#2f5be7;stroke-opacity:1" />
	<circle
   class="st2"
   cx="740.6"
   cy="319.1"
   r="3.8"
   id="circle261"
   style="fill:#3bc1fd;fill-opacity:1;stroke:#2f5be7;stroke-opacity:1" />
	<circle
   class="st2"
   cx="563.5"
   cy="574.9"
   r="3.8"
   id="circle263"
   style="fill:#3bc1fd;fill-opacity:1;stroke:#2f5be7;stroke-opacity:1" />
</g>

</svg>